<?xml version="1.0" encoding="UTF-8"?>
<svg id="Layer_2" data-name="Layer 2" xmlns="http://www.w3.org/2000/svg" viewBox="0 0 207.89 326.87">
  <defs>
    <style>
      .cls-1 {
        fill: #fff;
      }

      .cls-2 {
        fill: #f80;
      }

      .cls-3 {
        fill: #091b45;
      }

      .cls-4 {
        fill: #1dbfd5;
      }
    </style>
  </defs>
  <g id="Layer_1-2" data-name="Layer 1">
    <g>
      <g>
        <path class="cls-2" d="M122.37,169.31l-18.95,35.03,49.62,21.66-30.67-56.7Zm38.13,65.09s-.1,.03-.13,.03c-.32,.13-.65,.19-1,.19-.23,0-.45-.03-.68-.1-.06,0-.13-.03-.19-.06h-.06s-.03-.03-.06-.03c-.13-.03-.29-.1-.42-.19l-57.21-24.96-38.13,70.48,20.57,46.88,115.3-107.55-37.97,15.3Z"/>
        <path class="cls-3" d="M159.08,232.95h-.06s.03,0,.06,.03c.1,0,.19,.03,.29,.03-.1,0-.19-.03-.29-.06Z"/>
      </g>
      <path class="cls-4" d="M83.17,.23l-20.57,46.88,38.13,70.45,57.53-25.09c.06-.03,.13-.06,.23-.1,.1-.03,.19-.06,.32-.06,.19-.06,.39-.06,.55-.06,.36,0,.71,.06,1.03,.19,.03,0,.13,.06,.19,.06l37.36,14.79L83.17,.23Zm20.24,122.27l18.95,35.03,30.67-56.7-49.62,21.66Zm94.28-9.3l-37.03-14.66-35.1,64.9,35.1,64.86,11.43-4.62,35.81-14.4V117.2l-10.2-4Z"/>
      <path class="cls-1" d="M58.15,50.59L0,68.83l46.46,88.56,10.56-20.08c.32-.55,.74-.97,1.29-1.26l37.29-16.24L58.15,50.59Zm40.13,74.16l-36.77,16.02-11.88,22.63,11.88,22.67,36.77,16.05,20.89-38.68-20.89-38.68ZM20.7,17.72L1,62.67l56.44-17.76L77.16,0,20.7,17.72ZM58.37,190.81c-.58-.26-1.03-.71-1.32-1.26l-10.59-20.11L0,258l58.15,18.27,37.45-69.22-37.23-16.24Zm-.94,91.11L1,264.17l19.69,44.94,56.47,17.76-19.73-44.94Z"/>
    </g>
  </g>
</svg>