<?xml version="1.0" encoding="UTF-8"?>
<svg id="Layer_2" data-name="Layer 2" xmlns="http://www.w3.org/2000/svg" viewBox="0 0 330.3 138.97">
  <defs>
    <style>
      .cls-1 {
        fill: #fff;
      }

      .cls-2 {
        fill: #f80;
      }

      .cls-3 {
        fill: #091b45;
      }

      .cls-4 {
        fill: #1dbfd5;
      }
    </style>
  </defs>
  <g id="Layer_1-2" data-name="Layer 1">
    <g>
      <g>
        <rect class="cls-1" x="100.35" y="48.9" width="33.74" height="10.32"/>
        <rect class="cls-1" x="100.35" y="63.98" width="33.74" height="9.85"/>
        <rect class="cls-1" x="100.35" y="79.17" width="33.74" height="10.32"/>
      </g>
      <path class="cls-1" d="M144.38,49.62v9.6h36.38l.14-.16v-9.44h-36.52Zm-.58,30.28v9.44h37.9v-9.44h-37.9Zm14.28-15.93l-10.01,11.17h18.41l10.01-11.17h-18.41Z"/>
      <path class="cls-1" d="M228.26,58.8c-1.96-3.12-4.7-5.55-8.21-7.29-3.5-1.74-7.48-2.61-11.94-2.61s-8.36,.87-11.86,2.61c-3.52,1.74-6.26,4.17-8.25,7.29-1.59,2.5-2.53,5.26-2.85,8.3h16.72c.27-1.37,.81-2.51,1.59-3.39,1.22-1.35,2.76-2.03,4.65-2.03s3.43,.68,4.65,2.03c.79,.88,1.33,2.02,1.6,3.39h16.72c-.31-3.03-1.25-5.8-2.82-8.3Zm-13.92,13.06c-.27,1.35-.81,2.46-1.58,3.35-1.22,1.38-2.76,2.07-4.65,2.07s-3.44-.69-4.65-2.07c-.77-.89-1.31-2.01-1.58-3.35h-16.73c.32,3,1.28,5.74,2.85,8.21,1.99,3.13,4.73,5.57,8.25,7.34,3.5,1.77,7.46,2.65,11.86,2.65s8.43-.88,11.94-2.65c3.52-1.77,6.25-4.21,8.21-7.34,1.55-2.47,2.5-5.21,2.81-8.21h-16.73Z"/>
      <path class="cls-1" d="M236.35,49.62v39.72h15.61V49.62h-15.61Zm39.39,3.7c-2.98-2.95-6.91-4.43-11.8-4.43-2.37,0-4.57,.38-6.6,1.16-.21,.08-.41,.16-.62,.25v12.75c.67-.25,1.4-.36,2.21-.36,3.24,0,4.87,2.27,4.87,6.82v19.82h16.41v-22.66c0-5.95-1.49-10.4-4.46-13.36Z"/>
      <path class="cls-1" d="M330.3,69.45c0-1.42-.1-2.77-.32-4.07h-43.66c-.25,1.3-.37,2.66-.37,4.07,0,3.92,.99,7.45,2.98,10.6,1.98,3.14,4.8,5.6,8.43,7.37,3.63,1.77,7.84,2.65,12.63,2.65,7.7,0,13.48-2.13,17.36-6.39l-8.56-8.64c-1.41,1.06-2.7,1.81-3.89,2.25-1.18,.44-2.64,.66-4.39,.66-2.04,0-3.72-.4-5.08-1.2-1.36-.8-2.33-1.95-2.9-3.45h27.58c.15-2.32,.22-3.6,.22-3.85Zm-2.94-11.11c-1.97-3.09-4.6-5.45-7.91-7.04-3.32-1.6-6.99-2.4-11.01-2.4-4.26,0-8.09,.87-11.51,2.61-3.4,1.74-6.09,4.17-8.05,7.29-.26,.42-.51,.84-.73,1.28h40.18c-.29-.6-.62-1.19-.97-1.75Z"/>
      <g>
        <g>
          <path class="cls-2" d="M52.02,71.98l-8.06,14.89,21.1,9.21-13.04-24.1Zm16.21,27.67s-.04,.01-.05,.01c-.14,.05-.27,.08-.43,.08-.1,0-.19-.01-.29-.04-.03,0-.05-.01-.08-.03h-.03s-.01-.01-.03-.01c-.05-.01-.12-.04-.18-.08l-24.32-10.61-16.21,29.97,8.74,19.93,49.02-45.72-16.14,6.51Z"/>
          <path class="cls-3" d="M67.63,99.04h-.03s.01,0,.03,.01c.04,0,.08,.01,.12,.01-.04,0-.08-.01-.12-.03Z"/>
        </g>
        <path class="cls-4" d="M35.36,.1l-8.74,19.93,16.21,29.95,24.46-10.67s.05-.03,.1-.04c.04-.01,.08-.03,.14-.03,.08-.03,.16-.03,.23-.03,.15,0,.3,.03,.44,.08,.01,0,.05,.03,.08,.03l15.88,6.29L35.36,.1Zm8.61,51.98l8.06,14.89,13.04-24.1-21.1,9.21Zm40.08-3.95l-15.74-6.23-14.92,27.59,14.92,27.58,4.86-1.96,15.22-6.12V49.83l-4.34-1.7Z"/>
        <path class="cls-1" d="M24.72,21.51L0,29.26l19.75,37.65,4.49-8.54c.14-.23,.32-.41,.55-.54l15.85-6.9-15.92-29.43Zm17.06,31.53l-15.63,6.81-5.05,9.62,5.05,9.64,15.63,6.82,8.88-16.44-8.88-16.45ZM8.8,7.54L.43,26.64l23.99-7.55L32.81,0,8.8,7.54ZM24.82,81.12c-.25-.11-.44-.3-.56-.54l-4.5-8.55L0,109.69l24.72,7.77,15.92-29.43-15.83-6.9Zm-.4,38.74L.43,112.31l8.37,19.11,24.01,7.55-8.39-19.11Z"/>
      </g>
    </g>
  </g>
</svg>